<svg xmlns="http://www.w3.org/2000/svg" viewBox="0 0 600 400">
  <rect width="600" height="400" fill="#0d1117"/>
  <text x="300" y="28" text-anchor="middle" fill="#e6edf3" font-family="Arial,sans-serif" font-size="15" font-weight="bold">Mikel Oyarzabal — Activity Heatmap</text>
  <rect x="60" y="45" width="480" height="300" fill="#0d1117" stroke="#22c55e" stroke-width="1" rx="4"/>
  <rect x="60" y="195" width="480" height="150" fill="none" stroke="#22c55e" stroke-width="0.8" stroke-dasharray="5,3" rx="4"/>
  <line x1="60" y1="195" x2="540" y2="195" stroke="#22c55e" stroke-width="0.8"/>
  <circle cx="300" cy="195" r="16" fill="none" stroke="#22c55e" stroke-width="0.8"/>
  <rect x="500" y="120" width="40" height="50" fill="none" stroke="#22c55e" stroke-width="1" rx="2"/>
  <rect x="507" y="125" width="26" height="40" fill="none" stroke="#22c55e" stroke-width="0.5" rx="2"/>
  <rect x="60" y="120" width="40" height="50" fill="none" stroke="#22c55e" stroke-width="1" rx="2"/>
  <rect x="67" y="125" width="26" height="40" fill="none" stroke="#22c55e" stroke-width="0.5" rx="2"/>
  <line x1="520" y1="125" x2="520" y2="145" stroke="#22c55e" stroke-width="0.5"/>
  <line x1="80" y1="125" x2="80" y2="145" stroke="#22c55e" stroke-width="0.5"/>
  <line x1="507" y1="155" x2="533" y2="155" stroke="#22c55e" stroke-width="0.5"/>
  <line x1="67" y1="155" x2="93" y2="155" stroke="#22c55e" stroke-width="0.5"/>
  <ellipse cx="350" cy="130" rx="70" ry="40" fill="#22c55e" fill-opacity="0.08"/>
  <ellipse cx="350" cy="130" rx="55" ry="30" fill="#22c55e" fill-opacity="0.12"/>
  <ellipse cx="350" cy="130" rx="40" ry="20" fill="#22c55e" fill-opacity="0.18"/>
  <ellipse cx="350" cy="125" rx="25" ry="12" fill="#22c55e" fill-opacity="0.3"/>
  <ellipse cx="320" cy="120" rx="30" ry="18" fill="#22c55e" fill-opacity="0.1"/>
  <ellipse cx="380" cy="128" rx="25" ry="15" fill="#22c55e" fill-opacity="0.1"/>
  <ellipse cx="300" cy="170" rx="40" ry="20" fill="#22c55e" fill-opacity="0.06"/>
  <ellipse cx="320" cy="180" rx="30" ry="15" fill="#22c55e" fill-opacity="0.08"/>
  <ellipse cx="340" cy="100" rx="35" ry="15" fill="#22c55e" fill-opacity="0.06"/>
  <circle cx="395" cy="118" r="5" fill="#22c55e" fill-opacity="0.4"/>
  <circle cx="370" cy="122" r="5" fill="#22c55e" fill-opacity="0.4"/>
  <circle cx="340" cy="128" r="5" fill="#22c55e" fill-opacity="0.4"/>
  <text x="350" y="90" text-anchor="middle" fill="#22c55e" font-family="Arial,sans-serif" font-size="8" opacity="0.7">Box presence</text>
  <text x="280" y="165" text-anchor="middle" fill="#e6edf3" font-family="Arial,sans-serif" font-size="8" opacity="0.7">Deep zone</text>
  <text x="300" y="360" text-anchor="middle" fill="#e6edf3" font-family="Arial,sans-serif" font-size="9">Left-side bias • Striker zone activity</text>
  <rect x="105" y="375" width="12" height="12" fill="#22c55e" fill-opacity="0.08" stroke="#22c55e" stroke-width="0.5"/>
  <rect x="185" y="375" width="12" height="12" fill="#22c55e" fill-opacity="0.18" stroke="#22c55e" stroke-width="0.5"/>
  <rect x="265" y="375" width="12" height="12" fill="#22c55e" fill-opacity="0.3" stroke="#22c55e" stroke-width="0.5"/>
  <text x="125" y="384" fill="#e6edf3" font-family="Arial,sans-serif" font-size="7">Low</text>
  <text x="205" y="384" fill="#e6edf3" font-family="Arial,sans-serif" font-size="7">Med</text>
  <text x="285" y="384" fill="#e6edf3" font-family="Arial,sans-serif" font-size="7">High</text>
  <text x="420" y="380" fill="#e6edf3" font-family="Arial,sans-serif" font-size="8">2 goals</text>
  <text x="420" y="390" fill="#e6edf3" font-family="Arial,sans-serif" font-size="8">6 shots · 90 min · MOTM</text>
</svg>