<svg xmlns="http://www.w3.org/2000/svg" viewBox="0 0 600 400">
  <rect width="600" height="400" fill="#1a472a"/>
  <defs>
    <pattern id="pitchPattern" x="0" y="0" width="20" height="20" patternUnits="userSpaceOnUse">
      <rect width="20" height="20" fill="none"/>
      <rect x="0" y="0" width="1" height="20" fill="#000" opacity="0.08"/>
      <rect x="0" y="0" width="20" height="1" fill="#000" opacity="0.08"/>
    </pattern>
    <radialGradient id="pitchVignette" cx="50%" cy="50%" r="70%">
      <stop offset="0%" stop-color="transparent"/>
      <stop offset="100%" stop-color="#000" stop-opacity="0.35"/>
    </radialGradient>
  </defs>
  <rect width="600" height="400" fill="url(#pitchPattern)" opacity="0.12"/>
  <rect width="600" height="400" fill="url(#pitchVignette)"/>
  <rect x="30" y="30" width="540" height="340" fill="none" stroke="#fff" stroke-width="1.5" stroke-opacity="0.4" rx="4"/>
  <line x1="300" y1="30" x2="300" y2="370" stroke="#fff" stroke-width="1.5" stroke-opacity="0.35"/>
  <circle cx="300" cy="200" r="28" fill="none" stroke="#fff" stroke-width="1.5" stroke-opacity="0.35"/>
  <circle cx="300" cy="200" r="3" fill="#fff" fill-opacity="0.5"/>
  <rect x="30" y="110" width="80" height="180" fill="none" stroke="#fff" stroke-width="1.5" stroke-opacity="0.35"/>
  <rect x="490" y="110" width="80" height="180" fill="none" stroke="#fff" stroke-width="1.5" stroke-opacity="0.35"/>
  <rect x="30" y="160" width="30" height="80" fill="none" stroke="#fff" stroke-width="1.2" stroke-opacity="0.35"/>
  <rect x="540" y="160" width="30" height="80" fill="none" stroke="#fff" stroke-width="1.2" stroke-opacity="0.35"/>
  <rect x="20" y="170" width="10" height="60" fill="none" stroke="#fff" stroke-width="2" stroke-opacity="0.5"/>
  <rect x="570" y="170" width="10" height="60" fill="none" stroke="#fff" stroke-width="2" stroke-opacity="0.5"/>
  <circle cx="110" cy="200" r="3" fill="#fff" fill-opacity="0.5"/>
  <circle cx="490" cy="200" r="3" fill="#fff" fill-opacity="0.5"/>
  <path d="M 110 172 A 20 20 0 0 1 110 228" fill="none" stroke="#fff" stroke-width="1" stroke-opacity="0.35"/>
  <path d="M 490 172 A 20 20 0 0 0 490 228" fill="none" stroke="#fff" stroke-width="1" stroke-opacity="0.35"/>
  <path d="M 30 38 A 8 8 0 0 0 38 30" fill="none" stroke="#fff" stroke-width="1" stroke-opacity="0.35"/>
  <path d="M 570 38 A 8 8 0 0 1 562 30" fill="none" stroke="#fff" stroke-width="1" stroke-opacity="0.35"/>
  <path d="M 30 362 A 8 8 0 0 1 38 370" fill="none" stroke="#fff" stroke-width="1" stroke-opacity="0.35"/>
  <path d="M 570 362 A 8 8 0 0 0 562 370" fill="none" stroke="#fff" stroke-width="1" stroke-opacity="0.35"/>
  <text x="300" y="22" text-anchor="middle" fill="#cc0000" font-family="Arial,sans-serif" font-size="16" font-weight="bold" letter-spacing="2">SPAIN 4-3-3</text>
  <g>
    <circle cx="510" cy="200" r="18" fill="#0d1117" stroke="#cc0000" stroke-width="2"/>
    <text x="510" y="197" text-anchor="middle" fill="#fff" font-family="Arial,sans-serif" font-size="7">Simón</text>
    <text x="510" y="206" text-anchor="middle" fill="#aaa" font-family="Arial,sans-serif" font-size="6">1</text>
  </g>
  <g>
    <circle cx="440" cy="260" r="18" fill="#0d1117" stroke="#cc0000" stroke-width="2"/>
    <text x="440" y="257" text-anchor="middle" fill="#fff" font-family="Arial,sans-serif" font-size="7">Porro</text>
    <text x="440" y="266" text-anchor="middle" fill="#aaa" font-family="Arial,sans-serif" font-size="6">2</text>
  </g>
  <g>
    <circle cx="440" cy="215" r="18" fill="#0d1117" stroke="#cc0000" stroke-width="2"/>
    <text x="440" y="212" text-anchor="middle" fill="#fff" font-family="Arial,sans-serif" font-size="7">Laporte</text>
    <text x="440" y="221" text-anchor="middle" fill="#aaa" font-family="Arial,sans-serif" font-size="6">4</text>
  </g>
  <g>
    <circle cx="440" cy="185" r="18" fill="#0d1117" stroke="#cc0000" stroke-width="2"/>
    <text x="440" y="182" text-anchor="middle" fill="#fff" font-family="Arial,sans-serif" font-size="7">Cubarsí</text>
    <text x="440" y="191" text-anchor="middle" fill="#aaa" font-family="Arial,sans-serif" font-size="6">5</text>
  </g>
  <g>
    <circle cx="440" cy="140" r="18" fill="#0d1117" stroke="#cc0000" stroke-width="2"/>
    <text x="440" y="137" text-anchor="middle" fill="#fff" font-family="Arial,sans-serif" font-size="7">Cucurella</text>
    <text x="440" y="146" text-anchor="middle" fill="#aaa" font-family="Arial,sans-serif" font-size="6">3</text>
  </g>
  <g>
    <circle cx="350" cy="200" r="18" fill="#0d1117" stroke="#cc0000" stroke-width="2"/>
    <text x="350" y="197" text-anchor="middle" fill="#fff" font-family="Arial,sans-serif" font-size="7">Rodri</text>
    <text x="350" y="206" text-anchor="middle" fill="#aaa" font-family="Arial,sans-serif" font-size="6">16</text>
  </g>
  <g>
    <circle cx="320" cy="170" r="18" fill="#0d1117" stroke="#cc0000" stroke-width="2"/>
    <text x="320" y="167" text-anchor="middle" fill="#fff" font-family="Arial,sans-serif" font-size="7">Pedri</text>
    <text x="320" y="176" text-anchor="middle" fill="#aaa" font-family="Arial,sans-serif" font-size="6">20</text>
  </g>
  <g>
    <circle cx="320" cy="230" r="18" fill="#0d1117" stroke="#cc0000" stroke-width="2"/>
    <text x="320" y="227" text-anchor="middle" fill="#fff" font-family="Arial,sans-serif" font-size="7">Baena</text>
    <text x="320" y="236" text-anchor="middle" fill="#aaa" font-family="Arial,sans-serif" font-size="6">8</text>
  </g>
  <g>
    <circle cx="230" cy="260" r="18" fill="#0d1117" stroke="#cc0000" stroke-width="2"/>
    <text x="230" y="257" text-anchor="middle" fill="#fff" font-family="Arial,sans-serif" font-size="7">Yamal</text>
    <text x="230" y="266" text-anchor="middle" fill="#aaa" font-family="Arial,sans-serif" font-size="6">11</text>
  </g>
  <g>
    <circle cx="210" cy="200" r="18" fill="#0d1117" stroke="#cc0000" stroke-width="2"/>
    <text x="210" y="197" text-anchor="middle" fill="#fff" font-family="Arial,sans-serif" font-size="7">Oyarzabal</text>
    <text x="210" y="206" text-anchor="middle" fill="#aaa" font-family="Arial,sans-serif" font-size="6">21</text>
  </g>
  <g>
    <circle cx="230" cy="140" r="18" fill="#0d1117" stroke="#cc0000" stroke-width="2"/>
    <text x="230" y="137" text-anchor="middle" fill="#fff" font-family="Arial,sans-serif" font-size="7">Olmo</text>
    <text x="230" y="146" text-anchor="middle" fill="#aaa" font-family="Arial,sans-serif" font-size="6">10</text>
  </g>
  <line x1="422" y1="215" x2="368" y2="200" stroke="#cc0000" stroke-width="0.8" stroke-opacity="0.3"/>
  <line x1="422" y1="185" x2="368" y2="200" stroke="#cc0000" stroke-width="0.8" stroke-opacity="0.3"/>
  <line x1="332" y1="200" x2="228" y2="200" stroke="#cc0000" stroke-width="0.8" stroke-opacity="0.3"/>
  <line x1="302" y1="170" x2="248" y2="140" stroke="#cc0000" stroke-width="0.8" stroke-opacity="0.3"/>
  <line x1="302" y1="230" x2="248" y2="260" stroke="#cc0000" stroke-width="0.8" stroke-opacity="0.3"/>
</svg>